<svg width="26" height="26" viewBox="0 0 26 26" fill="none" xmlns="http://www.w3.org/2000/svg">
<path d="M19.5 10.5625H17.875C17.8744 9.91623 17.6173 9.29662 17.1604 8.83964C16.7034 8.38266 16.0838 8.12565 15.4375 8.125V6.5C16.5145 6.50129 17.5471 6.92972 18.3087 7.6913C19.0703 8.45289 19.4987 9.48545 19.5 10.5625Z" fill="#EC691F"/>
<path d="M22.75 10.5625H21.125C21.1233 9.05461 20.5235 7.60897 19.4573 6.54273C18.391 5.47649 16.9454 4.87672 15.4375 4.875V3.25C17.3762 3.25215 19.2349 4.02326 20.6058 5.39416C21.9767 6.76505 22.7478 8.62376 22.75 10.5625Z" fill="#EC691F"/>
<path d="M21.125 23.5625H20.9869C5.02125 22.6444 2.75437 9.17313 2.4375 5.06188C2.38797 4.41736 2.59649 3.77956 3.01719 3.28878C3.43788 2.79799 4.0363 2.49441 4.68081 2.44481C4.74527 2.43994 4.81 2.4375 4.875 2.4375H9.15687C9.48233 2.43719 9.80037 2.5346 10.0698 2.71713C10.3393 2.89966 10.5477 3.15889 10.6681 3.46125L11.9031 6.5C12.022 6.79538 12.0515 7.11919 11.988 7.4312C11.9244 7.74321 11.7706 8.02967 11.5456 8.255L9.815 10.0019C10.0842 11.5386 10.8196 12.9553 11.9213 14.0599C13.023 15.1645 14.4378 15.9036 15.9737 16.1769L17.7369 14.43C17.9656 14.2075 18.2547 14.0573 18.5683 13.998C18.8818 13.9388 19.2059 13.9732 19.5 14.0969L22.5631 15.3238C22.8609 15.448 23.115 15.658 23.293 15.9272C23.471 16.1963 23.5648 16.5123 23.5625 16.835V21.125C23.5625 21.7715 23.3057 22.3915 22.8486 22.8486C22.3915 23.3057 21.7715 23.5625 21.125 23.5625ZM4.875 4.0625C4.7683 4.06218 4.66258 4.08288 4.56388 4.12341C4.46518 4.16395 4.37543 4.22353 4.29976 4.29875C4.22408 4.37397 4.16397 4.46336 4.12284 4.56182C4.08171 4.66027 4.06038 4.76586 4.06006 4.87256C4.06006 4.89531 4.06087 4.91779 4.0625 4.94C4.43625 9.75 6.83312 21.125 21.0762 21.9375C21.2913 21.9504 21.5027 21.8773 21.6639 21.7344C21.8251 21.5915 21.9229 21.3904 21.9359 21.1754L21.9375 21.125V16.835L18.8744 15.6081L16.5425 17.9237L16.1525 17.875C9.08375 16.9894 8.125 9.92063 8.125 9.8475L8.07625 9.4575L10.3837 7.12563L9.165 4.0625H4.875Z" fill="#FEFEFE"/>
</svg>
