<svg width="62" height="72" viewBox="0 0 62 72" fill="none" xmlns="http://www.w3.org/2000/svg">
<path d="M18.0837 10.9166H3.75033C1.77131 10.9166 0.166992 12.5209 0.166992 14.5C0.166992 16.479 1.77131 18.0833 3.75033 18.0833H18.0837C20.0627 18.0833 21.667 16.479 21.667 14.5C21.667 12.5209 20.0627 10.9166 18.0837 10.9166Z" fill="#EC691F"/>
<path d="M43.1667 71.8333C39.4063 71.8333 35.7412 70.6501 32.6906 68.4514C29.64 66.2526 27.3586 63.1498 26.1694 59.5824C24.9803 56.0149 24.9437 52.1638 26.065 48.5745C27.1862 44.9851 29.4084 41.8395 32.4167 39.5833V10.9166C32.4167 8.06555 33.5493 5.33124 35.5653 3.31523C37.5813 1.29921 40.3156 0.166626 43.1667 0.166626C46.0177 0.166626 48.752 1.29921 50.7681 3.31523C52.7841 5.33124 53.9167 8.06555 53.9167 10.9166V39.5833C56.925 41.8395 59.1471 44.9851 60.2684 48.5745C61.3896 52.1638 61.353 56.0149 60.1639 59.5824C58.9748 63.1498 56.6933 66.2526 53.6427 68.4514C50.5921 70.6501 46.9271 71.8333 43.1667 71.8333ZM43.1667 7.33329C42.2163 7.33329 41.3049 7.71082 40.6329 8.38283C39.9609 9.05483 39.5833 9.96627 39.5833 10.9166V41.5183C39.5858 42.1497 39.4215 42.7706 39.1068 43.318C38.7922 43.8655 38.3385 44.3201 37.7917 44.6358C36.1617 45.5768 34.8074 46.9293 33.8641 48.558C32.9209 50.1867 32.4217 52.0345 32.4167 53.9166C32.4167 56.7677 33.5493 59.502 35.5653 61.518C37.5813 63.534 40.3156 64.6666 43.1667 64.6666C46.0177 64.6666 48.752 63.534 50.7681 61.518C52.7841 59.502 53.9167 56.7677 53.9167 53.9166C53.9116 52.0345 53.4125 50.1867 52.4692 48.558C51.526 46.9293 50.1716 45.5768 48.5417 44.6358C47.9948 44.3201 47.5411 43.8655 47.2265 43.318C46.9119 42.7706 46.7475 42.1497 46.75 41.5183V10.9166C46.7575 10.455 46.669 9.99685 46.4901 9.57122C46.3112 9.1456 46.0459 8.76179 45.7108 8.44413C45.382 8.09905 44.9876 7.82306 44.5507 7.63232C44.1138 7.44158 43.6433 7.33992 43.1667 7.33329Z" fill="#EC691F"/>
</svg>
