<svg width="72" height="72" viewBox="0 0 72 72" fill="none" xmlns="http://www.w3.org/2000/svg">
<path d="M4.75366 0.166626L0.166992 4.71746L10.0928 14.6433L13.2103 19.4808L8.12199 27.4L14.3212 30.625L18.9078 23.4583L31.4495 36H7.33366C5.43294 36 3.61007 36.755 2.26606 38.099C0.922049 39.443 0.166992 41.2659 0.166992 43.1666V71.8333H7.33366V64.6666H60.1162L64.667 69.2175V71.8333H71.8337V67.2466L4.75366 0.166626ZM18.0837 53.9166C18.0837 54.867 17.7061 55.7784 17.0341 56.4504C16.3621 57.1224 15.4507 57.5 14.5003 57.5C13.55 57.5 12.6385 57.1224 11.9665 56.4504C11.2945 55.7784 10.917 54.867 10.917 53.9166V46.75C10.917 45.7996 11.2945 44.8882 11.9665 44.2162C12.6385 43.5442 13.55 43.1666 14.5003 43.1666C15.4507 43.1666 16.3621 43.5442 17.0341 44.2162C17.7061 44.8882 18.0837 45.7996 18.0837 46.75V53.9166ZM32.417 53.9166C32.417 54.867 32.0395 55.7784 31.3675 56.4504C30.6955 57.1224 29.784 57.5 28.8337 57.5C27.8833 57.5 26.9719 57.1224 26.2999 56.4504C25.6279 55.7784 25.2503 54.867 25.2503 53.9166V46.75C25.2503 45.7996 25.6279 44.8882 26.2999 44.2162C26.9719 43.5442 27.8833 43.1666 28.8337 43.1666C29.784 43.1666 30.6955 43.5442 31.3675 44.2162C32.0395 44.8882 32.417 45.7996 32.417 46.75V53.9166ZM46.7503 53.9166C46.7503 54.867 46.3728 55.7784 45.7008 56.4504C45.0288 57.1224 44.1174 57.5 43.167 57.5C42.2166 57.5 41.3052 57.1224 40.6332 56.4504C39.9612 55.7784 39.5837 54.867 39.5837 53.9166V46.75C39.5837 45.9975 39.8703 45.3525 40.2287 44.7791L46.7503 51.3008V53.9166ZM51.2295 27.0416L56.3178 19.1583L51.2295 11.275L58.3962 0.166626L64.667 3.35579L59.507 11.275L64.667 19.1583V19.1941L57.5003 30.2666L51.2295 27.0416ZM71.8337 43.1666V58.145L61.0837 47.395V46.75C61.0837 45.7996 60.7061 44.8882 60.0341 44.2162C59.3621 43.5442 58.4507 43.1666 57.5003 43.1666C57.3212 43.1666 57.142 43.1666 56.9628 43.2741L49.6887 36H64.667C66.5677 36 68.3906 36.755 69.7346 38.099C71.0786 39.443 71.8337 41.2659 71.8337 43.1666ZM34.7103 19.1583L29.622 11.275L36.7887 0.166626L42.9878 3.35579L37.8995 11.275L42.9878 19.1583L42.952 19.1941L39.0103 25.25L33.9937 20.305L34.7103 19.1583ZM19.8753 6.22246L14.8587 1.16996L15.2887 0.489126L21.4878 3.74996L19.8753 6.22246Z" fill="#EC691F"/>
</svg>
