<svg width="76" height="86" viewBox="0 0 76 86" fill="none" xmlns="http://www.w3.org/2000/svg">
<path d="M38.0003 86C37.2875 86 36.6039 85.7169 36.0999 85.2129C35.5959 84.7088 35.3128 84.0253 35.3128 83.3125V76.3626L31.8405 79.8402C31.3359 80.3442 30.6517 80.627 29.9386 80.6265C29.2254 80.626 28.5416 80.3422 28.0377 79.8376C27.5338 79.3329 27.251 78.6488 27.2515 77.9356C27.252 77.2224 27.5358 76.5387 28.0404 76.0348L35.3128 68.7624V47.6548L17.0378 58.2059L14.3718 68.1496C14.1865 68.8382 13.7352 69.4249 13.1173 69.7807C12.4994 70.1365 11.7654 70.2323 11.0769 70.047C10.3884 69.8617 9.80166 69.4104 9.44583 68.7925C9.09 68.1746 8.99421 67.4407 9.17953 66.7521L10.4534 62.0114L4.43341 65.4836C3.81647 65.8344 3.08584 65.9269 2.40095 65.741C1.71606 65.555 1.13252 65.1057 0.77767 64.4911C0.422821 63.8765 0.325473 63.1465 0.506869 62.4604C0.688264 61.7743 1.13368 61.1878 1.74591 60.8289L7.76591 57.3566L3.01441 56.0827C2.67348 55.991 2.35396 55.833 2.0741 55.6177C1.79424 55.4025 1.55952 55.1342 1.38333 54.8283C1.20714 54.5223 1.09294 54.1847 1.04725 53.8346C1.00156 53.4845 1.02527 53.1288 1.11703 52.7879C1.20879 52.4469 1.36681 52.1274 1.58205 51.8476C1.79729 51.5677 2.06555 51.333 2.37151 51.1568C2.67747 50.9806 3.01513 50.8664 3.36522 50.8207C3.71532 50.775 4.07098 50.7987 4.41191 50.8905L14.3449 53.5511L32.6253 43L14.3503 32.4489L4.40653 35.1095C3.72248 35.28 2.99882 35.1749 2.39155 34.8168C1.78428 34.4587 1.34203 33.8764 1.16012 33.1952C0.978206 32.5141 1.07121 31.7888 1.41907 31.1756C1.76694 30.5625 2.34182 30.1105 3.01978 29.9172L7.76591 28.6434L1.74591 25.1711C1.4378 24.9959 1.16738 24.7616 0.950227 24.4814C0.733072 24.2013 0.573469 23.881 0.480606 23.539C0.387742 23.1969 0.363453 22.8399 0.409137 22.4884C0.454821 22.137 0.569575 21.798 0.746793 21.4911C0.924011 21.1841 1.16019 20.9153 1.44174 20.7C1.72328 20.4847 2.04463 20.3272 2.38729 20.2366C2.72994 20.146 3.08713 20.1241 3.43829 20.1721C3.78945 20.2201 4.12765 20.3371 4.43341 20.5164L10.4534 23.9886L9.17953 19.2425C9.08173 18.8995 9.05321 18.5404 9.09561 18.1862C9.13802 17.832 9.25051 17.4898 9.42652 17.1796C9.60254 16.8693 9.83856 16.5972 10.1208 16.3791C10.4031 16.161 10.726 16.0012 11.0706 15.9092C11.4152 15.8171 11.7747 15.7946 12.1281 15.843C12.4816 15.8913 12.8218 16.0095 13.1291 16.1907C13.4364 16.3718 13.7045 16.6124 13.9179 16.8983C14.1312 17.1841 14.2855 17.5096 14.3718 17.8558L17.0324 27.7941L35.3128 38.3452V17.2376L28.0404 9.96525C27.7905 9.71573 27.5923 9.41944 27.4569 9.09329C27.3215 8.76714 27.2517 8.41752 27.2515 8.0644C27.2512 7.71128 27.3205 7.36156 27.4554 7.03522C27.5903 6.70888 27.7882 6.41231 28.0377 6.16244C28.2872 5.91256 28.5835 5.71428 28.9097 5.57892C29.2358 5.44355 29.5854 5.37375 29.9386 5.37351C30.2917 5.37326 30.6414 5.44256 30.9677 5.57747C31.2941 5.71237 31.5907 5.91023 31.8405 6.15975L35.3128 9.63737V2.6875C35.3128 1.97473 35.5959 1.29115 36.0999 0.787151C36.6039 0.283147 37.2875 0 38.0003 0C38.7131 0 39.3966 0.283147 39.9006 0.787151C40.4046 1.29115 40.6878 1.97473 40.6878 2.6875V9.63737L44.1654 6.15975C44.6701 5.65582 45.3542 5.373 46.0674 5.37351C46.7805 5.37401 47.4643 5.6578 47.9682 6.16244C48.4721 6.66708 48.755 7.35123 48.7545 8.0644C48.754 8.77757 48.4702 9.46132 47.9655 9.96525L40.6878 17.2376V38.3452L58.9628 27.7941L61.6288 17.8504C61.8141 17.1618 62.2654 16.5751 62.8833 16.2193C63.5012 15.8635 64.2351 15.7677 64.9237 15.953C65.6122 16.1383 66.1989 16.5896 66.5547 17.2075C66.9106 17.8254 67.0064 18.5593 66.821 19.2479L65.5525 23.9886L71.5725 20.5164C72.1895 20.1656 72.9201 20.0731 73.605 20.2591C74.2899 20.445 74.8734 20.8943 75.2283 21.5089C75.5831 22.1235 75.6805 22.8535 75.4991 23.5396C75.3177 24.2257 74.8723 24.8122 74.26 25.1711L68.24 28.6434L72.9862 29.9172C73.6747 30.1026 74.2614 30.5538 74.6172 31.1717C74.9731 31.7896 75.0689 32.5236 74.8835 33.2121C74.6982 33.9007 74.247 34.4874 73.6291 34.8432C73.0111 35.199 72.2772 35.2948 71.5887 35.1095L61.6557 32.4489L43.3753 43L61.6503 53.5511L71.5887 50.8905C72.2772 50.7059 73.0109 50.8024 73.6283 51.1587C74.2457 51.515 74.6962 52.102 74.8808 52.7906C75.0655 53.4791 74.969 54.2128 74.6126 54.8302C74.2563 55.4476 73.6693 55.8981 72.9808 56.0827L68.2347 57.3566L74.2547 60.8289C74.8669 61.1878 75.3123 61.7743 75.4937 62.4604C75.6751 63.1465 75.5777 63.8765 75.2229 64.4911C74.868 65.1057 74.2845 65.555 73.5996 65.741C72.9147 65.9269 72.1841 65.8344 71.5672 65.4836L65.5472 62.0114L66.8157 66.7575C66.9135 67.1005 66.942 67.4596 66.8996 67.8138C66.8572 68.168 66.7447 68.5102 66.5687 68.8204C66.3926 69.1307 66.1566 69.4028 65.8744 69.6209C65.5921 69.839 65.2692 69.9988 64.9246 70.0908C64.58 70.1829 64.2205 70.2054 63.867 70.1571C63.5136 70.1087 63.1734 69.9905 62.8661 69.8093C62.5588 69.6282 62.2907 69.3876 62.0773 69.1017C61.864 68.8159 61.7097 68.4904 61.6234 68.1442L58.9628 58.2059L40.6878 47.6548V68.7624L47.9602 76.0348C48.4648 76.5387 48.7486 77.2224 48.7491 77.9356C48.7496 78.6488 48.4668 79.3329 47.9628 79.8376C47.4589 80.3422 46.7752 80.626 46.062 80.6265C45.3488 80.627 44.6647 80.3442 44.16 79.8402L40.6824 76.3626V83.3125C40.6824 84.0253 40.3993 84.7088 39.8953 85.2129C39.3913 85.7169 38.7077 86 37.9949 86H38.0003Z" fill="#EC691F"/>
</svg>
