<svg width="76" height="66" viewBox="0 0 76 66" fill="none" xmlns="http://www.w3.org/2000/svg">
<path d="M30.6253 11.6666C29.2136 11.6666 27.8157 11.9447 26.5115 12.4849C25.2072 13.0252 24.0222 13.817 23.0239 14.8152C22.0257 15.8135 21.2339 16.9985 20.6936 18.3028C20.1534 19.607 19.8753 21.0049 19.8753 22.4166C19.8753 23.8283 20.1534 25.2262 20.6936 26.5305C21.2339 27.8347 22.0257 29.0198 23.0239 30.018C24.0222 31.0163 25.2072 31.8081 26.5115 32.3483C27.8157 32.8886 29.2136 33.1666 30.6253 33.1666C33.4764 33.1666 36.2107 32.034 38.2267 30.018C40.2427 28.002 41.3753 25.2677 41.3753 22.4166C41.3753 19.5655 40.2427 16.8312 38.2267 14.8152C36.2107 12.7992 33.4764 11.6666 30.6253 11.6666V11.6666ZM25.2503 22.4166C25.2503 20.9911 25.8166 19.6239 26.8246 18.6159C27.8326 17.6079 29.1998 17.0416 30.6253 17.0416C32.0509 17.0416 33.418 17.6079 34.426 18.6159C35.434 19.6239 36.0003 20.9911 36.0003 22.4166C36.0003 23.8422 35.434 25.2093 34.426 26.2173C33.418 27.2253 32.0509 27.7916 30.6253 27.7916C29.1998 27.7916 27.8326 27.2253 26.8246 26.2173C25.8166 25.2093 25.2503 23.8422 25.2503 22.4166ZM0.166992 8.97913C0.166992 6.84082 1.01643 4.79009 2.52844 3.27808C4.04046 1.76607 6.09118 0.916626 8.22949 0.916626H53.0212C54.0799 0.916626 55.1284 1.12517 56.1065 1.53035C57.0847 1.93553 57.9735 2.52941 58.7222 3.27808C59.4709 4.02675 60.0648 4.91555 60.4699 5.89374C60.8751 6.87193 61.0837 7.92034 61.0837 8.97913V23.0401C59.3222 22.6248 57.5184 22.4156 55.7087 22.4166V17.0416H53.0212C50.8828 17.0416 48.8321 16.1922 47.3201 14.6802C45.8081 13.1682 44.9587 11.1174 44.9587 8.97913V6.29163H16.292V8.97913C16.292 10.0379 16.0834 11.0863 15.6783 12.0645C15.2731 13.0427 14.6792 13.9315 13.9305 14.6802C13.1819 15.4288 12.2931 16.0227 11.3149 16.4279C10.3367 16.8331 9.28827 17.0416 8.22949 17.0416H5.54199V27.7916H8.22949C10.3678 27.7916 12.4185 28.6411 13.9305 30.1531C15.4426 31.6651 16.292 33.7158 16.292 35.8541V38.5416H33.5386C32.9867 40.2545 32.6248 42.0533 32.4851 43.9166H8.22949C6.09118 43.9166 4.04046 43.0672 2.52844 41.5552C1.01643 40.0432 0.166992 37.9924 0.166992 35.8541V8.97913ZM8.22949 6.29163C7.51672 6.29163 6.83315 6.57477 6.32914 7.07878C5.82514 7.58278 5.54199 8.26636 5.54199 8.97913V11.6666H8.22949C8.94226 11.6666 9.62584 11.3835 10.1298 10.8795C10.6338 10.3755 10.917 9.6919 10.917 8.97913V6.29163H8.22949ZM55.7087 11.6666V8.97913C55.7087 8.26636 55.4255 7.58278 54.9215 7.07878C54.4175 6.57477 53.7339 6.29163 53.0212 6.29163H50.3337V8.97913C50.3337 10.4626 51.5377 11.6666 53.0212 11.6666H55.7087ZM5.54199 35.8541C5.54199 37.3376 6.74599 38.5416 8.22949 38.5416H10.917V35.8541C10.917 35.1414 10.6338 34.4578 10.1298 33.9538C9.62584 33.4498 8.94226 33.1666 8.22949 33.1666H5.54199V35.8541ZM8.77058 49.2916H32.6893C32.9796 51.1657 33.492 52.9681 34.2015 54.6666H18.0837C14.1062 54.6666 10.6303 52.5059 8.77058 49.2916ZM66.4587 25.0396C68.4247 26.0655 70.2345 27.3661 71.8337 28.9025V18.8333C71.8337 14.8558 69.6729 11.38 66.4587 9.52021V25.0396ZM75.417 45.7083C75.417 50.9353 73.3406 55.9482 69.6446 59.6442C65.9485 63.3402 60.9356 65.4166 55.7087 65.4166C50.4817 65.4166 45.4688 63.3402 41.7728 59.6442C38.0767 55.9482 36.0003 50.9353 36.0003 45.7083C36.0003 40.4813 38.0767 35.4684 41.7728 31.7724C45.4688 28.0764 50.4817 26 55.7087 26C60.9356 26 65.9485 28.0764 69.6446 31.7724C73.3406 35.4684 75.417 40.4813 75.417 45.7083V45.7083ZM49.8105 37.2731C49.4741 36.9367 49.0178 36.7477 48.542 36.7477C48.0662 36.7477 47.6099 36.9367 47.2735 37.2731C46.9371 37.6096 46.7481 38.0658 46.7481 38.5416C46.7481 39.0174 46.9371 39.4737 47.2735 39.8101L53.1752 45.7083L47.2735 51.6065C46.9371 51.9429 46.7481 52.3992 46.7481 52.875C46.7481 53.3507 46.9371 53.807 47.2735 54.1435C47.6099 54.4799 48.0662 54.6689 48.542 54.6689C49.0178 54.6689 49.4741 54.4799 49.8105 54.1435L55.7087 48.2417L61.6068 54.1435C61.7734 54.31 61.9712 54.4422 62.1888 54.5323C62.4065 54.6225 62.6397 54.6689 62.8753 54.6689C63.1109 54.6689 63.3442 54.6225 63.5618 54.5323C63.7795 54.4422 63.9772 54.31 64.1438 54.1435C64.3104 53.9769 64.4425 53.7791 64.5327 53.5615C64.6228 53.3438 64.6693 53.1105 64.6693 52.875C64.6693 52.6394 64.6228 52.4061 64.5327 52.1885C64.4425 51.9708 64.3104 51.773 64.1438 51.6065L58.2421 45.7083L64.1438 39.8101C64.4803 39.4737 64.6693 39.0174 64.6693 38.5416C64.6693 38.0658 64.4803 37.6096 64.1438 37.2731C63.8074 36.9367 63.3511 36.7477 62.8753 36.7477C62.3995 36.7477 61.9433 36.9367 61.6068 37.2731L55.7087 43.1749L49.8105 37.2731V37.2731Z" fill="#EC691F"/>
</svg>
