<svg width="24" height="24" viewBox="0 0 24 24" fill="none" xmlns="http://www.w3.org/2000/svg">
<path d="M12 5.9911C8.67482 5.9911 5.99123 8.6747 5.99123 11.9999C5.99123 15.3251 8.67482 18.0087 12 18.0087C15.3252 18.0087 18.0088 15.3251 18.0088 11.9999C18.0088 8.6747 15.3252 5.9911 12 5.9911ZM12 15.9052C9.84962 15.9052 8.09474 14.1503 8.09474 11.9999C8.09474 9.8495 9.84962 8.09462 12 8.09462C14.1504 8.09462 15.9053 9.8495 15.9053 11.9999C15.9053 14.1503 14.1504 15.9052 12 15.9052ZM18.2549 4.34462C17.4785 4.34462 16.8516 4.97157 16.8516 5.74794C16.8516 6.52431 17.4785 7.15126 18.2549 7.15126C19.0313 7.15126 19.6582 6.52724 19.6582 5.74794C19.6585 5.56359 19.6223 5.381 19.5519 5.21064C19.4814 5.04028 19.3781 4.88548 19.2477 4.75513C19.1174 4.62477 18.9626 4.52141 18.7922 4.45097C18.6218 4.38053 18.4392 4.34439 18.2549 4.34462V4.34462ZM23.7129 11.9999C23.7129 10.3827 23.7276 8.78017 23.6367 7.16591C23.5459 5.29091 23.1182 3.62685 21.7471 2.25575C20.3731 0.88173 18.7119 0.456926 16.8369 0.366106C15.2197 0.275285 13.6172 0.289934 12.0029 0.289934C10.3858 0.289934 8.78322 0.275285 7.16896 0.366106C5.29396 0.456926 3.6299 0.88466 2.25881 2.25575C0.884782 3.62978 0.459978 5.29091 0.369157 7.16591C0.278337 8.7831 0.292986 10.3856 0.292986 11.9999C0.292986 13.6142 0.278337 15.2196 0.369157 16.8339C0.459978 18.7089 0.887712 20.3729 2.25881 21.744C3.63283 23.1181 5.29396 23.5429 7.16896 23.6337C8.78615 23.7245 10.3887 23.7099 12.0029 23.7099C13.6201 23.7099 15.2227 23.7245 16.8369 23.6337C18.7119 23.5429 20.376 23.1151 21.7471 21.744C23.1211 20.37 23.5459 18.7089 23.6367 16.8339C23.7305 15.2196 23.7129 13.6171 23.7129 11.9999V11.9999ZM21.1348 18.9081C20.9209 19.4413 20.6631 19.8397 20.25 20.2499C19.8369 20.663 19.4414 20.9208 18.9082 21.1347C17.3672 21.747 13.708 21.6093 12 21.6093C10.292 21.6093 6.6299 21.747 5.08888 21.1376C4.55568 20.9237 4.15724 20.6659 3.74709 20.2528C3.334 19.8397 3.07619 19.4442 2.86232 18.911C2.25295 17.3671 2.39064 13.7079 2.39064 11.9999C2.39064 10.2919 2.25295 6.62978 2.86232 5.08876C3.07619 4.55556 3.334 4.15712 3.74709 3.74696C4.16017 3.33681 4.55568 3.07607 5.08888 2.8622C6.6299 2.25282 10.292 2.39052 12 2.39052C13.708 2.39052 17.3701 2.25282 18.9111 2.8622C19.4444 3.07607 19.8428 3.33388 20.2529 3.74696C20.666 4.16005 20.9238 4.55556 21.1377 5.08876C21.7471 6.62978 21.6094 10.2919 21.6094 11.9999C21.6094 13.7079 21.7471 17.3671 21.1348 18.9081Z" fill="#2B2A29"/>
</svg>
