<svg width="36" height="42" viewBox="0 0 36 42" fill="none" xmlns="http://www.w3.org/2000/svg">
<path d="M18 0.768555C13.4433 0.773532 9.07467 2.45171 5.85256 5.43495C2.63044 8.41819 0.817894 12.4629 0.812518 16.6819C0.807061 20.1296 2.02343 23.4838 4.27502 26.2298C4.27502 26.2298 4.74377 26.8013 4.82033 26.8837L18 41.2751L31.186 26.8765C31.2547 26.7998 31.725 26.2298 31.725 26.2298L31.7266 26.2255C33.9771 23.4806 35.1929 20.128 35.1875 16.6819C35.1821 12.4629 33.3696 8.41819 30.1475 5.43495C26.9254 2.45171 22.5568 0.773532 18 0.768555ZM18 22.4685C16.7639 22.4685 15.5555 22.1291 14.5277 21.4933C13.4999 20.8574 12.6988 19.9537 12.2258 18.8963C11.7527 17.8389 11.629 16.6754 11.8701 15.5529C12.1113 14.4304 12.7065 13.3994 13.5806 12.5901C14.4547 11.7808 15.5683 11.2297 16.7807 11.0064C17.9931 10.7831 19.2498 10.8977 20.3918 11.3357C21.5338 11.7737 22.5099 12.5154 23.1967 13.467C23.8835 14.4186 24.25 15.5374 24.25 16.6819C24.248 18.216 23.5888 19.6867 22.4172 20.7715C21.2455 21.8563 19.657 22.4666 18 22.4685Z" fill="#EB5757"/>
</svg>
