<svg width="86" height="86" viewBox="0 0 86 86" fill="none" xmlns="http://www.w3.org/2000/svg">
<path d="M43.0002 15.0738C43.6338 15.0738 44.2414 14.8221 44.6894 14.3741C45.1374 13.9261 45.3891 13.3185 45.3891 12.6849V4.56272C45.3891 3.92914 45.1374 3.32152 44.6894 2.87352C44.2414 2.42551 43.6338 2.17383 43.0002 2.17383C42.3666 2.17383 41.759 2.42551 41.311 2.87352C40.863 3.32152 40.6113 3.92914 40.6113 4.56272V12.6849C40.6113 13.3185 40.863 13.9261 41.311 14.3741C41.759 14.8221 42.3666 15.0738 43.0002 15.0738Z" fill="#EC691F"/>
<path d="M43.0002 70.9261C42.3666 70.9261 41.759 71.1778 41.311 71.6258C40.863 72.0738 40.6113 72.6815 40.6113 73.315V81.4373C40.6113 82.0708 40.863 82.6785 41.311 83.1265C41.759 83.5745 42.3666 83.8261 43.0002 83.8261C43.6338 83.8261 44.2414 83.5745 44.6894 83.1265C45.1374 82.6785 45.3891 82.0708 45.3891 81.4373V73.315C45.3891 72.6815 45.1374 72.0738 44.6894 71.6258C44.2414 71.1778 43.6338 70.9261 43.0002 70.9261Z" fill="#EC691F"/>
<path d="M19.8751 23.2677C20.3193 23.6715 20.8993 23.8933 21.4996 23.8888C21.814 23.8907 22.1256 23.8304 22.4167 23.7115C22.7078 23.5926 22.9725 23.4175 23.1957 23.1961C23.4196 22.974 23.5973 22.7098 23.7186 22.4187C23.8399 22.1276 23.9023 21.8153 23.9023 21.5C23.9023 21.1846 23.8399 20.8723 23.7186 20.5812C23.5973 20.2901 23.4196 20.0259 23.1957 19.8038L17.5101 14.1422C17.0531 13.7508 16.4653 13.5463 15.8641 13.5695C15.2628 13.5928 14.6925 13.842 14.2671 14.2674C13.8416 14.6929 13.5924 15.2632 13.5692 15.8644C13.5459 16.4657 13.7504 17.0535 14.1418 17.5105L19.8751 23.2677Z" fill="#EC691F"/>
<path d="M66.1241 62.7322C65.9013 62.5095 65.6369 62.3328 65.3459 62.2122C65.0549 62.0917 64.743 62.0297 64.428 62.0297C64.113 62.0297 63.8011 62.0917 63.51 62.2122C63.219 62.3328 62.9546 62.5095 62.7319 62.7322C62.5091 62.955 62.3324 63.2194 62.2119 63.5104C62.0913 63.8014 62.0293 64.1133 62.0293 64.4283C62.0293 64.7433 62.0913 65.0552 62.2119 65.3463C62.3324 65.6373 62.5091 65.9017 62.7319 66.1244L68.4891 71.8578C68.7103 72.0835 68.9742 72.2631 69.2653 72.3861C69.5564 72.5091 69.8691 72.5731 70.1852 72.5744C70.8153 72.5655 71.4163 72.3079 71.8574 71.8578C72.3023 71.4102 72.5521 70.8047 72.5521 70.1736C72.5521 69.5425 72.3023 68.937 71.8574 68.4894L66.1241 62.7322Z" fill="#EC691F"/>
<path d="M15.0738 43C15.0738 42.3664 14.8221 41.7588 14.3741 41.3108C13.9261 40.8628 13.3185 40.6111 12.6849 40.6111H4.56272C3.92914 40.6111 3.32152 40.8628 2.87352 41.3108C2.42551 41.7588 2.17383 42.3664 2.17383 43C2.17383 43.6335 2.42551 44.2412 2.87352 44.6892C3.32152 45.1372 3.92914 45.3889 4.56272 45.3889H12.6849C13.3185 45.3889 13.9261 45.1372 14.3741 44.6892C14.8221 44.2412 15.0738 43.6335 15.0738 43Z" fill="#EC691F"/>
<path d="M81.4369 40.6111H73.3147C72.6811 40.6111 72.0735 40.8628 71.6255 41.3108C71.1775 41.7588 70.9258 42.3664 70.9258 43C70.9258 43.6335 71.1775 44.2412 71.6255 44.6892C72.0735 45.1372 72.6811 45.3889 73.3147 45.3889H81.4369C82.0705 45.3889 82.6781 45.1372 83.1261 44.6892C83.5741 44.2412 83.8258 43.6335 83.8258 43C83.8258 42.3664 83.5741 41.7588 83.1261 41.3108C82.6781 40.8628 82.0705 40.6111 81.4369 40.6111Z" fill="#EC691F"/>
<path d="M19.8755 62.7322L14.1422 68.4894C13.8067 68.8221 13.5775 69.2468 13.4834 69.7098C13.3893 70.1728 13.4346 70.6533 13.6136 71.0906C13.7926 71.5278 14.0972 71.9022 14.489 72.1663C14.8807 72.4304 15.342 72.5725 15.8144 72.5744C16.1305 72.5731 16.4432 72.5091 16.7343 72.3861C17.0254 72.2631 17.2893 72.0835 17.5105 71.8578L23.2678 66.1244C23.7176 65.6746 23.9703 65.0645 23.9703 64.4283C23.9703 63.7922 23.7176 63.1821 23.2678 62.7322C22.8179 62.2824 22.2078 62.0297 21.5716 62.0297C20.9355 62.0297 20.3254 62.2824 19.8755 62.7322Z" fill="#EC691F"/>
<path d="M64.5004 23.8889C64.8148 23.8907 65.1265 23.8304 65.4175 23.7115C65.7086 23.5927 65.9733 23.4175 66.1965 23.1961L71.9298 17.4389C72.3748 16.9913 72.6245 16.3858 72.6245 15.7547C72.6245 15.1236 72.3748 14.5181 71.9298 14.0705C71.4823 13.6256 70.8768 13.3759 70.2457 13.3759C69.6146 13.3759 69.0091 13.6256 68.5615 14.0705L62.8043 19.8039C62.5804 20.0259 62.4027 20.2902 62.2814 20.5813C62.1601 20.8724 62.0977 21.1846 62.0977 21.5C62.0977 21.8153 62.1601 22.1276 62.2814 22.4187C62.4027 22.7098 62.5804 22.974 62.8043 23.1961C63.0275 23.4175 63.2922 23.5927 63.5833 23.7115C63.8743 23.8304 64.186 23.8907 64.5004 23.8889Z" fill="#EC691F"/>
<path d="M43.3108 18.5138C38.5118 18.4522 33.803 19.819 29.7827 22.4403C25.7625 25.0617 22.6125 28.8193 20.7332 33.2353C18.8539 37.6514 18.3302 42.5266 19.2285 47.2411C20.1269 51.9556 22.4068 56.2965 25.7785 59.712C29.1502 63.1275 33.4613 65.4633 38.1638 66.4225C42.8663 67.3817 47.7478 66.9209 52.1878 65.0988C56.6278 63.2767 60.4257 60.1755 63.0988 56.1895C65.7718 52.2035 67.1993 47.5126 67.1997 42.7133C67.2315 36.3392 64.7347 30.2125 60.2567 25.6763C55.7787 21.14 49.6848 18.5643 43.3108 18.5138ZM43.3108 62.1111C39.4559 62.1727 35.6699 61.0857 32.4349 58.9883C29.1999 56.891 26.6623 53.8783 25.1453 50.334C23.6283 46.7896 23.2005 42.8739 23.9163 39.0856C24.6322 35.2972 26.4594 31.8077 29.1652 29.0613C31.871 26.3149 35.333 24.436 39.1102 23.6638C42.8875 22.8916 46.8091 23.261 50.3757 24.7251C53.9422 26.1892 56.9924 28.6817 59.1376 31.8851C61.2828 35.0885 62.4261 38.8579 62.4219 42.7133C62.4474 47.8161 60.4512 52.7215 56.8699 56.3565C53.2885 59.9916 48.4135 62.0606 43.3108 62.1111Z" fill="#EC691F"/>
</svg>
