<svg width="130" height="130" viewBox="0 0 130 130" fill="none" xmlns="http://www.w3.org/2000/svg">
<path d="M65 8.12524C33.5918 8.12524 8.125 33.592 8.125 65.0002C8.125 96.4084 33.5918 121.875 65 121.875C96.4082 121.875 121.875 96.4084 121.875 65.0002C121.875 33.592 96.4082 8.12524 65 8.12524ZM65 112.227C38.9238 112.227 17.7734 91.0764 17.7734 65.0002C17.7734 38.9241 38.9238 17.7737 65 17.7737C91.0762 17.7737 112.227 38.9241 112.227 65.0002C112.227 91.0764 91.0762 112.227 65 112.227Z" fill="#FEFEFE"/>
<path d="M91.3301 63.3626L53.7393 36.0677C53.4378 35.8467 53.0809 35.7137 52.7083 35.6837C52.3356 35.6536 51.962 35.7276 51.629 35.8974C51.296 36.0672 51.0166 36.3261 50.8221 36.6454C50.6276 36.9646 50.5256 37.3316 50.5274 37.7054V92.2952C50.5274 93.9583 52.4063 94.8978 53.7393 93.9329L91.3301 66.638C91.5896 66.451 91.801 66.205 91.9468 65.9202C92.0926 65.6355 92.1686 65.3202 92.1686 65.0003C92.1686 64.6804 92.0926 64.3651 91.9468 64.0804C91.801 63.7956 91.5896 63.5496 91.3301 63.3626ZM58.627 80.3743V49.6263L79.7901 65.0003L58.627 80.3743Z" fill="#FEFEFE"/>
</svg>
