<svg width="26" height="23" viewBox="0 0 26 23" fill="none" xmlns="http://www.w3.org/2000/svg">
<path d="M23.4405 0.746382C23.1396 0.768278 22.8442 0.838883 22.5658 0.955444H22.5621C22.2949 1.06138 21.0246 1.59576 19.0933 2.40576L12.1727 5.32044C7.20677 7.41107 2.32521 9.46982 2.32521 9.46982L2.38333 9.44732C2.38333 9.44732 2.04677 9.55794 1.69521 9.79888C1.47802 9.93709 1.29112 10.1179 1.14584 10.3304C0.973335 10.5836 0.834585 10.9708 0.886148 11.3711C0.970523 12.0479 1.40927 12.4539 1.72427 12.6779C2.04302 12.9048 2.34677 13.0108 2.34677 13.0108H2.35427L6.93209 14.5529C7.1374 15.212 8.32708 19.1233 8.61302 20.0242C8.78177 20.5623 8.94583 20.8989 9.15115 21.1558C9.25052 21.287 9.36677 21.3967 9.50646 21.4848C9.57908 21.5271 9.65651 21.5604 9.73708 21.5842L9.69021 21.5729C9.70427 21.5767 9.71552 21.5879 9.72583 21.5917C9.76333 21.602 9.78865 21.6058 9.83646 21.6133C10.5611 21.8326 11.1433 21.3826 11.1433 21.3826L11.1761 21.3564L13.879 18.8954L18.409 22.3708L18.5121 22.4148C19.4561 22.8292 20.4124 22.5986 20.9177 22.1917C21.4268 21.782 21.6246 21.2579 21.6246 21.2579L21.6574 21.1736L25.158 3.24013C25.2574 2.79763 25.2827 2.38326 25.173 1.98107C25.0599 1.57403 24.7987 1.22395 24.4408 0.999507C24.1403 0.816802 23.7918 0.728615 23.4405 0.746382ZM23.3458 2.66826C23.3421 2.72732 23.3533 2.72076 23.3271 2.83419V2.84451L19.8593 20.5914C19.8443 20.6167 19.819 20.672 19.7496 20.7273C19.6765 20.7854 19.6183 20.822 19.3136 20.7011L13.773 16.4533L10.4261 19.5039L11.1293 15.0133L20.1818 6.57576C20.5549 6.22888 20.4302 6.15576 20.4302 6.15576C20.4565 5.73013 19.8668 6.03107 19.8668 6.03107L8.45177 13.1026L8.44802 13.0839L2.97677 11.2417V11.2379L2.96271 11.2351C2.9723 11.2319 2.98169 11.2282 2.99083 11.2239L3.02084 11.2089L3.0499 11.1986C3.0499 11.1986 7.93521 9.13982 12.9011 7.04919C15.3874 6.00201 17.8924 4.94732 19.819 4.13357C21.7455 3.32451 23.1696 2.73107 23.2502 2.69919C23.3271 2.66919 23.2905 2.66919 23.3458 2.66919V2.66826Z" fill="#2B2A29"/>
</svg>
