<svg width="518" height="485" viewBox="0 0 518 485" fill="none" xmlns="http://www.w3.org/2000/svg">
<path d="M149.508 202H116.1L109.476 162.832H65.124L58.212 202H27.684L66.276 0.399986H110.628L149.508 202ZM87.3 34.384L70.02 134.32H104.58L87.3 34.384ZM0.27675 431.024V331.664C0.27675 314.384 4.78875 301.04 13.8128 291.632C23.0288 282.224 36.1808 277.52 53.2688 277.52C70.1648 277.52 83.2208 282.224 92.4368 291.632C101.653 301.04 106.261 314.384 106.261 331.664V345.776H75.4448V329.936C75.4448 314.384 68.3408 306.608 54.1328 306.608C40.1168 306.608 33.1088 314.384 33.1088 329.936V432.464C33.1088 448.016 40.1168 455.792 54.1328 455.792C68.3408 455.792 75.4448 448.016 75.4448 432.464V398.192H55.2848V368.528H106.261V431.024C106.261 448.112 101.653 461.36 92.4368 470.768C83.2208 480.176 70.1648 484.88 53.2688 484.88C36.3728 484.88 23.3168 480.176 14.1008 470.768C4.88475 461.36 0.27675 448.112 0.27675 431.024Z" fill="#EC691F"/>
<path d="M232.166 52.816C256.742 52.816 269.03 67.984 269.03 98.32V159.088C269.03 189.616 256.742 204.88 232.166 204.88C217.766 204.88 207.11 199.12 200.198 187.6V246.64H168.518V55.696H195.878L196.454 78.16C202.406 61.264 214.31 52.816 232.166 52.816ZM237.35 155.344V102.352C237.35 87.76 231.782 80.464 220.646 80.464C207.014 80.464 200.198 89.68 200.198 108.112V149.584C200.198 168.016 207.014 177.232 220.646 177.232C231.782 177.232 237.35 169.936 237.35 155.344ZM392.432 103.504V135.76H323.023V157.36C323.023 170.992 329.552 177.808 342.608 177.808C355.664 177.808 362.192 170.896 362.192 157.072V154.192H392.432V155.632C392.432 171.184 388.016 183.28 379.184 191.92C370.544 200.56 358.16 204.88 342.032 204.88C325.712 204.88 313.136 200.464 304.304 191.632C295.664 182.8 291.344 170.32 291.344 154.192V103.504C291.344 87.184 295.664 74.704 304.304 66.064C313.136 57.232 325.712 52.816 342.032 52.816C358.352 52.816 370.832 57.232 379.472 66.064C388.112 74.704 392.432 87.184 392.432 103.504ZM323.023 100.048V111.856H361.616V100.048C361.616 86.416 355.184 79.6 342.32 79.6C329.456 79.6 323.023 86.416 323.023 100.048ZM435.087 202H403.983L442.287 126.544L405.711 55.696H440.271L462.159 102.064L484.623 55.696H516.015L479.151 126.544L517.743 202H483.183L459.279 150.736L435.087 202ZM163.073 482H131.393V280.4H163.073V482ZM288.644 482H259.556C258.02 480.08 257.156 472.88 256.964 460.4C251.204 476.72 239.204 484.88 220.964 484.88C209.828 484.88 200.996 481.52 194.468 474.8C187.94 468.08 184.676 458.864 184.676 447.152C184.676 435.44 187.652 425.936 193.604 418.64C199.748 411.152 209.924 404.912 224.132 399.92C236.804 395.504 244.868 392.048 248.324 389.552C251.78 387.056 253.508 383.504 253.508 378.896V377.456C253.508 365.36 248.036 359.312 237.092 359.312C225.188 359.312 219.236 365.84 219.236 378.896V381.488H189.86V379.76C189.86 364.784 193.892 353.264 201.956 345.2C210.212 336.944 222.02 332.816 237.38 332.816C253.892 332.816 265.892 337.04 273.38 345.488C281.06 353.744 284.9 366.512 284.9 383.792V439.376C284.9 459.152 286.148 473.36 288.644 482ZM231.908 458.384C238.628 458.384 243.908 455.984 247.748 451.184C251.588 446.384 253.508 439.376 253.508 430.16V410.288C251.012 412.784 244.388 416.24 233.636 420.656C221.924 425.456 216.068 432.656 216.068 442.256C216.068 453.008 221.348 458.384 231.908 458.384ZM355.718 484.88C340.166 484.88 328.07 480.944 319.43 473.072C310.79 465.2 306.47 454.256 306.47 440.24V435.632H336.71V440.528C336.71 452.624 342.566 458.672 354.278 458.672C365.798 458.672 371.558 453.104 371.558 441.968C371.558 436.976 369.734 433.136 366.086 430.448C362.438 427.568 355.718 424.304 345.926 420.656C335.366 416.624 326.822 411.92 320.294 406.544C312.23 399.632 308.198 389.264 308.198 375.44C308.198 362 312.134 351.536 320.006 344.048C328.07 336.56 339.398 332.816 353.99 332.816C368.006 332.816 379.142 336.656 387.398 344.336C395.846 351.824 400.07 362.192 400.07 375.44V378.32H370.406V374.864C370.406 364.112 365.03 358.736 354.278 358.736C343.91 358.736 338.726 363.824 338.726 374C338.726 379.952 341.318 384.656 346.502 388.112C349.574 390.032 355.814 392.816 365.222 396.464C375.974 400.496 384.422 405.104 390.566 410.288C398.822 416.816 402.95 426.8 402.95 440.24C402.95 454.448 398.822 465.488 390.566 473.36C382.502 481.04 370.886 484.88 355.718 484.88ZM467.375 484.88C451.823 484.88 439.727 480.944 431.087 473.072C422.447 465.2 418.127 454.256 418.127 440.24V435.632H448.367V440.528C448.367 452.624 454.223 458.672 465.935 458.672C477.455 458.672 483.215 453.104 483.215 441.968C483.215 436.976 481.391 433.136 477.743 430.448C474.095 427.568 467.375 424.304 457.583 420.656C447.023 416.624 438.479 411.92 431.951 406.544C423.887 399.632 419.855 389.264 419.855 375.44C419.855 362 423.791 351.536 431.663 344.048C439.727 336.56 451.055 332.816 465.647 332.816C479.663 332.816 490.799 336.656 499.055 344.336C507.503 351.824 511.727 362.192 511.727 375.44V378.32H482.062V374.864C482.062 364.112 476.687 358.736 465.935 358.736C455.567 358.736 450.383 363.824 450.383 374C450.383 379.952 452.975 384.656 458.159 388.112C461.231 390.032 467.471 392.816 476.879 396.464C487.631 400.496 496.079 405.104 502.223 410.288C510.479 416.816 514.607 426.8 514.607 440.24C514.607 454.448 510.479 465.488 502.223 473.36C494.159 481.04 482.543 484.88 467.375 484.88Z" fill="#9D9E9E"/>
</svg>
