<svg width="74" height="76" viewBox="0 0 74 76" fill="none" xmlns="http://www.w3.org/2000/svg">
<path d="M44.4498 0.375C45.0188 0.375018 45.5731 0.555621 46.0328 0.890799C46.4926 1.22598 46.8342 1.69843 47.0083 2.24013L49.9645 11.426C51.2061 12.0334 52.394 12.716 53.5281 13.4846L62.9666 11.4529C63.5231 11.3341 64.103 11.395 64.6227 11.6268C65.1423 11.8586 65.575 12.2494 65.8584 12.7429L73.3081 25.6375C73.5926 26.1307 73.7131 26.7015 73.6522 27.2676C73.5914 27.8337 73.3523 28.3658 72.9695 28.7872L66.4926 35.936C66.587 37.3068 66.587 38.6825 66.4926 40.0532L72.9695 47.2127C73.3523 47.6342 73.5914 48.1663 73.6522 48.7324C73.7131 49.2985 73.5926 49.8693 73.3081 50.3625L65.8584 63.2625C65.5742 63.755 65.1412 64.1447 64.6216 64.3755C64.102 64.6063 63.5226 64.6664 62.9666 64.5471L53.5281 62.5154C52.3994 63.2786 51.2061 63.9666 49.9699 64.574L47.0083 73.7599C46.8342 74.3016 46.4926 74.774 46.0328 75.1092C45.5731 75.4444 45.0188 75.625 44.4498 75.625H29.5503C28.9813 75.625 28.427 75.4444 27.9672 75.1092C27.5074 74.774 27.1659 74.3016 26.9918 73.7599L24.0409 64.5794C22.8026 63.9739 21.6082 63.2824 20.4665 62.51L11.0334 64.5471C10.4769 64.6659 9.89705 64.605 9.37737 64.3732C8.8577 64.1414 8.42501 63.7506 8.14165 63.2571L0.691908 50.3625C0.407433 49.8693 0.286939 49.2985 0.347798 48.7324C0.408658 48.1663 0.647726 47.6342 1.03053 47.2127L7.5074 40.0532C7.41359 38.686 7.41359 37.314 7.5074 35.9468L1.03053 28.7872C0.647726 28.3658 0.408658 27.8337 0.347798 27.2676C0.286939 26.7015 0.407433 26.1307 0.691908 25.6375L8.14165 12.7375C8.4258 12.245 8.85881 11.8553 9.37843 11.6245C9.89804 11.3937 10.4775 11.3336 11.0334 11.4529L20.4665 13.49C21.606 12.7214 22.7993 12.028 24.0409 11.4206L26.9971 2.24013C27.1707 1.70018 27.5106 1.22897 27.9682 0.893956C28.4259 0.55894 28.9777 0.377288 29.5449 0.375H44.4444H44.4498ZM42.4825 5.75H31.5175L28.4645 15.2476L26.4059 16.2528C25.3939 16.748 24.4169 17.3119 23.4819 17.9405L21.5791 19.2305L11.8182 17.1235L6.33566 26.6265L13.0275 34.0332L12.8663 36.3122C12.789 37.4361 12.789 38.5639 12.8663 39.6878L13.0275 41.9668L6.32491 49.3735L11.8128 58.8765L21.5738 56.7749L23.4765 58.0595C24.4116 58.6881 25.3885 59.252 26.4005 59.7472L28.4591 60.7524L31.5175 70.25H42.4933L45.557 60.747L47.6103 59.7472C48.6212 59.2532 49.5964 58.6892 50.5289 58.0595L52.4263 56.7749L62.1926 58.8765L67.6751 49.3735L60.9779 41.9668L61.1391 39.6878C61.2166 38.5621 61.2166 37.4325 61.1391 36.3069L60.9779 34.0279L67.6805 26.6265L62.1926 17.1235L52.4263 19.2197L50.5289 17.9405C49.5965 17.3106 48.6213 16.7467 47.6103 16.2528L45.557 15.253L42.4879 5.75H42.4825ZM37 21.875C41.2766 21.875 45.3781 23.5739 48.4021 26.5979C51.4261 29.6219 53.125 33.7234 53.125 38C53.125 42.2766 51.4261 46.3781 48.4021 49.4021C45.3781 52.4261 41.2766 54.125 37 54.125C32.7234 54.125 28.622 52.4261 25.5979 49.4021C22.5739 46.3781 20.875 42.2766 20.875 38C20.875 33.7234 22.5739 29.6219 25.5979 26.5979C28.622 23.5739 32.7234 21.875 37 21.875ZM37 27.25C34.1489 27.25 31.4146 28.3826 29.3986 30.3986C27.3826 32.4146 26.25 35.1489 26.25 38C26.25 40.8511 27.3826 43.5854 29.3986 45.6014C31.4146 47.6174 34.1489 48.75 37 48.75C39.8511 48.75 42.5854 47.6174 44.6014 45.6014C46.6174 43.5854 47.75 40.8511 47.75 38C47.75 35.1489 46.6174 32.4146 44.6014 30.3986C42.5854 28.3826 39.8511 27.25 37 27.25Z" fill="#FEFEFE"/>
</svg>
