<svg width="70" height="70" viewBox="0 0 70 70" fill="none" xmlns="http://www.w3.org/2000/svg">
<path d="M35 67.25L42.1667 60.0833M51.125 60.0833C53.5009 60.0833 55.7795 59.1395 57.4595 57.4595C59.1395 55.7795 60.0833 53.5009 60.0833 51.125C60.0833 48.7491 59.1395 46.4705 57.4595 44.7905C55.7795 43.1105 53.5009 42.1667 51.125 42.1667C48.7491 42.1667 46.4705 43.1105 44.7905 44.7905C43.1105 46.4705 42.1667 48.7491 42.1667 51.125C42.1667 53.5009 43.1105 55.7795 44.7905 57.4595C46.4705 59.1395 48.7491 60.0833 51.125 60.0833V60.0833ZM27.8333 9.91667L35 2.75L27.8333 9.91667ZM18.875 27.8333C21.2509 27.8333 23.5295 26.8895 25.2095 25.2095C26.8895 23.5295 27.8333 21.2509 27.8333 18.875C27.8333 16.4991 26.8895 14.2205 25.2095 12.5405C23.5295 10.8605 21.2509 9.91667 18.875 9.91667C16.4991 9.91667 14.2205 10.8605 12.5405 12.5405C10.8605 14.2205 9.91667 16.4991 9.91667 18.875C9.91667 21.2509 10.8605 23.5295 12.5405 25.2095C14.2205 26.8895 16.4991 27.8333 18.875 27.8333V27.8333ZM20.6667 49.3333L49.3333 20.6667L20.6667 49.3333ZM11.7083 67.25C14.0842 67.25 16.3628 66.3062 18.0428 64.6262C19.7228 62.9462 20.6667 60.6676 20.6667 58.2917C20.6667 55.9158 19.7228 53.6372 18.0428 51.9572C16.3628 50.2772 14.0842 49.3333 11.7083 49.3333C9.33244 49.3333 7.05385 50.2772 5.37384 51.9572C3.69382 53.6372 2.75 55.9158 2.75 58.2917C2.75 60.6676 3.69382 62.9462 5.37384 64.6262C7.05385 66.3062 9.33244 67.25 11.7083 67.25V67.25ZM58.2917 20.6667C60.6676 20.6667 62.9462 19.7228 64.6262 18.0428C66.3062 16.3628 67.25 14.0842 67.25 11.7083C67.25 9.33244 66.3062 7.05385 64.6262 5.37384C62.9462 3.69382 60.6676 2.75 58.2917 2.75C55.9158 2.75 53.6372 3.69382 51.9572 5.37384C50.2772 7.05385 49.3333 9.33244 49.3333 11.7083C49.3333 14.0842 50.2772 16.3628 51.9572 18.0428C53.6372 19.7228 55.9158 20.6667 58.2917 20.6667Z" stroke="#FEFEFE" stroke-width="5" stroke-linecap="round" stroke-linejoin="round"/>
</svg>
