<svg width="80" height="80" viewBox="0 0 80 80" fill="none" xmlns="http://www.w3.org/2000/svg">
<path d="M59.8657 51.8321L54.1602 29.0094C53.8633 27.8227 52.8758 27 51.7485 27H47.0414C47.3203 26.2149 47.5008 25.3813 47.5008 24.5C47.5008 20.3578 44.143 17 40.0008 17C35.8586 17 32.5008 20.3578 32.5008 24.5C32.5008 25.3813 32.6804 26.2149 32.9601 27H28.2531C27.1257 27 26.1375 27.8235 25.8414 29.0094L20.1343 51.8321C19.4835 54.4345 21.2796 56.9993 23.7523 56.9993H56.2485C58.7204 56.9993 60.5165 54.4345 59.8657 51.8321ZM40 26.9992C38.6219 26.9992 37.5 25.8774 37.5 24.4992C37.5 23.1211 38.6219 21.9992 40 21.9992C41.3781 21.9992 42.5 23.1211 42.5 24.4992C42.5 25.8774 41.3781 26.9992 40 26.9992Z" fill="#EC691F"/>
<circle cx="40" cy="40" r="39" stroke="#EC691F" stroke-width="2"/>
</svg>
