<svg width="80" height="80" viewBox="0 0 80 80" fill="none" xmlns="http://www.w3.org/2000/svg">
<path d="M46.5911 34.9609L57.0078 24.2969L56.9699 30.3516C56.9699 30.5859 57.0583 30.8008 57.235 30.9961C57.4118 31.1914 57.6138 31.2891 57.8411 31.2891H58.485C58.7376 31.263 58.9459 31.1784 59.11 31.0352C59.2742 30.8919 59.3689 30.7031 59.3941 30.4688V21.4453L59.3752 21.4258L59.3562 21.4062L59.432 20.9375C59.432 20.6771 59.3562 20.4688 59.2047 20.3125C59.028 20.1302 58.8259 20.0391 58.5987 20.0391L58.1441 20.0781H58.1062L49.432 20.0391C49.3057 20.0391 49.1858 20.0651 49.0722 20.1172C48.9585 20.1693 48.8638 20.2344 48.7881 20.3125C48.7123 20.3906 48.6492 20.4883 48.5987 20.6055C48.5482 20.7227 48.5229 20.8464 48.5229 20.9766V21.6016C48.5482 21.888 48.6618 22.1159 48.8638 22.2852C49.0658 22.4544 49.2931 22.5391 49.5456 22.5391H55.2653L44.8865 33.2031C44.634 33.4375 44.5078 33.7305 44.5078 34.082C44.5078 34.4336 44.634 34.7266 44.8865 34.9609C45.3158 35.4297 45.8083 35.4948 46.3638 35.1562C46.4396 35.0781 46.5153 35.013 46.5911 34.9609ZM33.4471 45.0391L23.0305 55.7031L23.0684 49.6484C23.0684 49.4141 22.98 49.1992 22.8032 49.0039C22.6264 48.8086 22.4244 48.7109 22.1971 48.7109H21.5153C21.4143 48.737 21.307 48.7695 21.1934 48.8086C21.0797 48.8477 20.9787 48.8997 20.8903 48.9648C20.8019 49.0299 20.7388 49.1146 20.7009 49.2188C20.6631 49.3229 20.6315 49.4271 20.6062 49.5312V58.5547L20.6252 58.5742L20.6441 58.5938L20.5684 59.0625C20.5684 59.1927 20.5873 59.3099 20.6252 59.4141C20.6631 59.5182 20.7199 59.6094 20.7956 59.6875C20.9724 59.8698 21.1744 59.9609 21.4017 59.9609L21.8562 59.9219H21.8941L30.6062 59.9609C30.8588 59.9609 31.0734 59.8698 31.2502 59.6875C31.4269 59.5052 31.5153 59.2839 31.5153 59.0234V58.3984C31.4901 58.112 31.3764 57.8841 31.1744 57.7148C30.9724 57.5456 30.7451 57.4609 30.4926 57.4609H24.7729L35.1517 46.7969C35.278 46.6667 35.3727 46.5299 35.4358 46.3867C35.4989 46.2435 35.5305 46.0872 35.5305 45.918C35.5305 45.7487 35.4989 45.5859 35.4358 45.4297C35.3727 45.2734 35.278 45.1432 35.1517 45.0391C35.0002 44.8828 34.8234 44.7721 34.6214 44.707C34.4194 44.6419 34.211 44.6419 33.9964 44.707C33.7817 44.7721 33.5987 44.8828 33.4471 45.0391ZM59.3941 58.5547V49.5312C59.3689 49.2969 59.2742 49.1081 59.11 48.9648C58.9459 48.8216 58.7376 48.737 58.485 48.7109H57.8411C57.6138 48.7109 57.4118 48.8021 57.235 48.9844C57.0583 49.1667 56.9699 49.388 56.9699 49.6484L57.0078 55.7031L46.5911 45.0391C46.4396 44.8828 46.2565 44.7721 46.0418 44.707C45.8272 44.6419 45.6189 44.6419 45.4168 44.707C45.2148 44.7721 45.0381 44.8828 44.8865 45.0391C44.634 45.2734 44.5078 45.5664 44.5078 45.918C44.5078 46.2695 44.634 46.5625 44.8865 46.7969L55.2653 57.4609H49.5456C49.3689 57.4609 49.211 57.4935 49.0722 57.5586C48.9333 57.6237 48.8133 57.7344 48.7123 57.8906C48.6113 58.0469 48.5482 58.2161 48.5229 58.3984V59.0234C48.5229 59.2057 48.5671 59.3685 48.6555 59.5117C48.7439 59.6549 48.8512 59.7656 48.9775 59.8438C49.1037 59.9219 49.2552 59.9609 49.432 59.9609L58.1062 59.9219H58.1441L58.5987 59.9609C58.8259 59.9609 59.028 59.8698 59.2047 59.6875C59.3562 59.5312 59.432 59.3229 59.432 59.0625L59.3562 58.5938H59.3941V58.5547ZM24.7729 22.5391H30.4926C30.7451 22.5391 30.9724 22.4544 31.1744 22.2852C31.3764 22.1159 31.4901 21.888 31.5153 21.6016V20.9766C31.5153 20.7161 31.4269 20.4948 31.2502 20.3125C31.0734 20.1302 30.8588 20.0391 30.6062 20.0391L21.8941 20.0781H21.8562L21.4017 20.0391C21.1744 20.0391 20.9724 20.1302 20.7956 20.3125C20.7199 20.3906 20.6631 20.4818 20.6252 20.5859C20.5873 20.6901 20.5684 20.8073 20.5684 20.9375L20.6441 21.4062H20.6252L20.6062 21.4453V30.4688C20.6315 30.7031 20.7262 30.8919 20.8903 31.0352C21.0545 31.1784 21.2628 31.263 21.5153 31.2891H22.1971C22.3487 31.2891 22.4939 31.2435 22.6328 31.1523C22.7716 31.0612 22.879 30.944 22.9547 30.8008C23.0305 30.6576 23.0684 30.5078 23.0684 30.3516L23.0305 24.2969L33.4471 34.9609C33.6744 35.2214 33.9585 35.3516 34.2994 35.3516C34.6403 35.3516 34.9307 35.2279 35.1706 34.9805C35.4105 34.7331 35.5305 34.4336 35.5305 34.082C35.5305 33.7305 35.4042 33.4375 35.1517 33.2031L24.7729 22.5391Z" fill="#EC691F"/>
<circle cx="40" cy="40" r="39" stroke="#EC691F" stroke-width="2"/>
</svg>
