<svg width="522" height="485" viewBox="0 0 522 485" fill="none" xmlns="http://www.w3.org/2000/svg">
<path opacity="0.1" d="M122.008 202H88.6L81.976 162.832H37.624L30.712 202H0.184L38.776 0.399986H83.128L122.008 202ZM59.8 34.384L42.52 134.32H77.08L59.8 34.384ZM204.666 52.816C229.242 52.816 241.53 67.984 241.53 98.32V159.088C241.53 189.616 229.242 204.88 204.666 204.88C190.266 204.88 179.61 199.12 172.698 187.6V246.64H141.018V55.696H168.378L168.954 78.16C174.906 61.264 186.81 52.816 204.666 52.816ZM209.85 155.344V102.352C209.85 87.76 204.282 80.464 193.146 80.464C179.514 80.464 172.698 89.68 172.698 108.112V149.584C172.698 168.016 179.514 177.232 193.146 177.232C204.282 177.232 209.85 169.936 209.85 155.344ZM364.932 103.504V135.76H295.523V157.36C295.523 170.992 302.052 177.808 315.108 177.808C328.164 177.808 334.692 170.896 334.692 157.072V154.192H364.932V155.632C364.932 171.184 360.516 183.28 351.684 191.92C343.044 200.56 330.66 204.88 314.532 204.88C298.212 204.88 285.636 200.464 276.804 191.632C268.164 182.8 263.844 170.32 263.844 154.192V103.504C263.844 87.184 268.164 74.704 276.804 66.064C285.636 57.232 298.212 52.816 314.532 52.816C330.852 52.816 343.332 57.232 351.972 66.064C360.612 74.704 364.932 87.184 364.932 103.504ZM295.523 100.048V111.856H334.116V100.048C334.116 86.416 327.684 79.6 314.82 79.6C301.956 79.6 295.523 86.416 295.523 100.048ZM407.587 202H376.483L414.787 126.544L378.211 55.696H412.771L434.659 102.064L457.123 55.696H488.515L451.651 126.544L490.243 202H455.683L431.779 150.736L407.587 202ZM6.808 431.024V331.664C6.808 314.384 11.32 301.04 20.344 291.632C29.56 282.224 42.712 277.52 59.8 277.52C76.696 277.52 89.752 282.224 98.968 291.632C108.184 301.04 112.792 314.384 112.792 331.664V345.776H81.976V329.936C81.976 314.384 74.872 306.608 60.664 306.608C46.648 306.608 39.64 314.384 39.64 329.936V432.464C39.64 448.016 46.648 455.792 60.664 455.792C74.872 455.792 81.976 448.016 81.976 432.464V398.192H61.816V368.528H112.792V431.024C112.792 448.112 108.184 461.36 98.968 470.768C89.752 480.176 76.696 484.88 59.8 484.88C42.904 484.88 29.848 480.176 20.632 470.768C11.416 461.36 6.808 448.112 6.808 431.024ZM169.605 482H137.925V280.4H169.605V482ZM295.175 482H266.087C264.551 480.08 263.687 472.88 263.495 460.4C257.735 476.72 245.735 484.88 227.495 484.88C216.359 484.88 207.527 481.52 200.999 474.8C194.471 468.08 191.207 458.864 191.207 447.152C191.207 435.44 194.183 425.936 200.135 418.64C206.279 411.152 216.455 404.912 230.663 399.92C243.335 395.504 251.399 392.048 254.855 389.552C258.311 387.056 260.039 383.504 260.039 378.896V377.456C260.039 365.36 254.567 359.312 243.623 359.312C231.719 359.312 225.767 365.84 225.767 378.896V381.488H196.391V379.76C196.391 364.784 200.423 353.264 208.487 345.2C216.743 336.944 228.551 332.816 243.911 332.816C260.423 332.816 272.423 337.04 279.911 345.488C287.591 353.744 291.431 366.512 291.431 383.792V439.376C291.431 459.152 292.679 473.36 295.175 482ZM238.439 458.384C245.159 458.384 250.439 455.984 254.279 451.184C258.119 446.384 260.039 439.376 260.039 430.16V410.288C257.543 412.784 250.919 416.24 240.167 420.656C228.455 425.456 222.599 432.656 222.599 442.256C222.599 453.008 227.879 458.384 238.439 458.384ZM362.25 484.88C346.698 484.88 334.602 480.944 325.962 473.072C317.322 465.2 313.002 454.256 313.002 440.24V435.632H343.242V440.528C343.242 452.624 349.098 458.672 360.81 458.672C372.33 458.672 378.09 453.104 378.09 441.968C378.09 436.976 376.266 433.136 372.618 430.448C368.97 427.568 362.25 424.304 352.458 420.656C341.898 416.624 333.354 411.92 326.826 406.544C318.762 399.632 314.73 389.264 314.73 375.44C314.73 362 318.666 351.536 326.538 344.048C334.602 336.56 345.93 332.816 360.522 332.816C374.538 332.816 385.674 336.656 393.93 344.336C402.378 351.824 406.602 362.192 406.602 375.44V378.32H376.938V374.864C376.938 364.112 371.562 358.736 360.81 358.736C350.442 358.736 345.258 363.824 345.258 374C345.258 379.952 347.85 384.656 353.034 388.112C356.106 390.032 362.346 392.816 371.754 396.464C382.506 400.496 390.954 405.104 397.098 410.288C405.354 416.816 409.482 426.8 409.482 440.24C409.482 454.448 405.354 465.488 397.098 473.36C389.034 481.04 377.418 484.88 362.25 484.88ZM473.906 484.88C458.354 484.88 446.258 480.944 437.618 473.072C428.978 465.2 424.658 454.256 424.658 440.24V435.632H454.898V440.528C454.898 452.624 460.754 458.672 472.466 458.672C483.986 458.672 489.746 453.104 489.746 441.968C489.746 436.976 487.922 433.136 484.274 430.448C480.626 427.568 473.906 424.304 464.114 420.656C453.554 416.624 445.01 411.92 438.482 406.544C430.418 399.632 426.386 389.264 426.386 375.44C426.386 362 430.322 351.536 438.194 344.048C446.258 336.56 457.586 332.816 472.178 332.816C486.194 332.816 497.33 336.656 505.586 344.336C514.034 351.824 518.258 362.192 518.258 375.44V378.32H488.594V374.864C488.594 364.112 483.218 358.736 472.466 358.736C462.098 358.736 456.914 363.824 456.914 374C456.914 379.952 459.506 384.656 464.69 388.112C467.762 390.032 474.002 392.816 483.41 396.464C494.162 400.496 502.61 405.104 508.754 410.288C517.01 416.816 521.138 426.8 521.138 440.24C521.138 454.448 517.01 465.488 508.754 473.36C500.69 481.04 489.074 484.88 473.906 484.88Z" fill="#9D9E9E"/>
</svg>
