<svg width="86" height="86" viewBox="0 0 86 86" fill="none" xmlns="http://www.w3.org/2000/svg">
<path d="M10.75 43H43V48.375H10.75V43Z" fill="#F3F3F3"/>
<path d="M5.375 29.5625H32.25V34.9375H5.375V29.5625Z" fill="#F3F3F3"/>
<path d="M80.4073 44.6286L72.3448 25.8161C72.1379 25.3326 71.7935 24.9205 71.3545 24.6309C70.9154 24.3414 70.4009 24.1872 69.875 24.1875H61.8125V18.8125C61.8125 18.0997 61.5293 17.4162 61.0253 16.9122C60.5213 16.4081 59.8378 16.125 59.125 16.125H16.125V21.5H56.4375V55.2442C55.2129 55.9553 54.1412 56.9018 53.2841 58.0292C52.4271 59.1565 51.8018 60.4423 51.4441 61.8125H34.5559C33.9017 59.2791 32.3461 57.0712 30.1806 55.6028C28.0151 54.1343 25.3883 53.506 22.7927 53.8357C20.197 54.1654 17.8108 55.4304 16.0811 57.3936C14.3515 59.3569 13.3972 61.8835 13.3972 64.5C13.3972 67.1165 14.3515 69.6431 16.0811 71.6064C17.8108 73.5696 20.197 74.8346 22.7927 75.1643C25.3883 75.494 28.0151 74.8657 30.1806 73.3972C32.3461 71.9288 33.9017 69.7209 34.5559 67.1875H51.4441C52.0287 69.494 53.3658 71.5397 55.2436 73.001C57.1215 74.4623 59.433 75.2557 61.8125 75.2557C64.1919 75.2557 66.5035 74.4623 68.3813 73.001C70.2592 71.5397 71.5962 69.494 72.1809 67.1875H77.9375C78.6503 67.1875 79.3338 66.9044 79.8378 66.4004C80.3418 65.8963 80.625 65.2128 80.625 64.5V45.6875C80.6251 45.3234 80.551 44.9631 80.4073 44.6286ZM24.1875 69.875C23.1244 69.875 22.0852 69.5598 21.2013 68.9692C20.3174 68.3785 19.6285 67.5391 19.2216 66.5569C18.8148 65.5748 18.7084 64.494 18.9158 63.4514C19.1232 62.4087 19.6351 61.451 20.3868 60.6993C21.1385 59.9476 22.0962 59.4357 23.1389 59.2283C24.1815 59.0209 25.2623 59.1273 26.2444 59.5341C27.2266 59.941 28.066 60.6299 28.6566 61.5138C29.2472 62.3977 29.5625 63.4369 29.5625 64.5C29.5611 65.9251 28.9943 67.2914 27.9866 68.2991C26.9789 69.3068 25.6126 69.8736 24.1875 69.875ZM61.8125 29.5625H68.1012L73.8632 43H61.8125V29.5625ZM61.8125 69.875C60.7494 69.875 59.7102 69.5598 58.8263 68.9692C57.9424 68.3785 57.2535 67.5391 56.8466 66.5569C56.4398 65.5748 56.3334 64.494 56.5408 63.4514C56.7482 62.4087 57.2601 61.451 58.0118 60.6993C58.7635 59.9476 59.7212 59.4357 60.7639 59.2283C61.8065 59.0209 62.8873 59.1273 63.8694 59.5341C64.8516 59.941 65.691 60.6299 66.2816 61.5138C66.8722 62.3977 67.1875 63.4369 67.1875 64.5C67.1861 65.9251 66.6193 67.2914 65.6116 68.2991C64.6039 69.3068 63.2376 69.8736 61.8125 69.875ZM75.25 61.8125H72.1809C71.5889 59.5105 70.2497 57.47 68.3733 56.0109C66.4969 54.5518 64.1894 53.7566 61.8125 53.75V48.375H75.25V61.8125Z" fill="#F3F3F3"/>
</svg>
