<?xml version="1.0" encoding="utf-8"?>
<!-- Generator: Adobe Illustrator 23.0.1, SVG Export Plug-In . SVG Version: 6.00 Build 0)  -->
<svg version="1.1" id="Layer_1" xmlns="http://www.w3.org/2000/svg" xmlns:xlink="http://www.w3.org/1999/xlink" x="0px" y="0px"
	 viewBox="0 0 18 16" style="enable-background:new 0 0 18 16;" xml:space="preserve">
<g>
	<path d="M17,9H1C0.4,9,0,8.6,0,8s0.4-1,1-1h16c0.6,0,1,0.4,1,1S17.6,9,17,9z"/>
</g>
<g>
	<path d="M10,16c-0.3,0-0.5-0.1-0.7-0.3c-0.4-0.4-0.4-1,0-1.4L15.6,8L9.3,1.7c-0.4-0.4-0.4-1,0-1.4s1-0.4,1.4,0l7,7
		c0.4,0.4,0.4,1,0,1.4l-7,7C10.5,15.9,10.3,16,10,16z"/>
</g>
</svg>
