<svg width="17" height="17" viewBox="0 0 17 17" fill="none" xmlns="http://www.w3.org/2000/svg">
<path d="M14.8525 13.1475C14.4622 12.7736 14.0823 12.3891 13.7133 11.9942C13.4033 11.6792 13.2166 11.45 13.2166 11.45L10.8833 10.3358C11.8175 9.27637 12.333 7.9125 12.3333 6.5C12.3333 3.28417 9.71663 0.666672 6.49996 0.666672C3.28329 0.666672 0.666626 3.28417 0.666626 6.5C0.666626 9.71584 3.28329 12.3333 6.49996 12.3333C7.96913 12.3333 9.30829 11.7833 10.3358 10.8842L11.45 13.2175C11.45 13.2175 11.6791 13.4042 11.9941 13.7142C12.3166 14.0167 12.7408 14.4258 13.1475 14.8533L14.2791 16.0133L14.7825 16.5517L16.55 14.7842L16.0116 14.2808C15.6958 13.9708 15.2741 13.5592 14.8525 13.1475ZM6.49996 10.6667C4.20246 10.6667 2.33329 8.7975 2.33329 6.5C2.33329 4.2025 4.20246 2.33334 6.49996 2.33334C8.79746 2.33334 10.6666 4.2025 10.6666 6.5C10.6666 8.7975 8.79746 10.6667 6.49996 10.6667Z" fill="#9D9E9E"/>
</svg>
